<?xml version="1.0" standalone="no"?>
<!DOCTYPE svg PUBLIC "-//W3C//DTD SVG 20010904//EN"
 "http://www.w3.org/TR/2001/REC-SVG-20010904/DTD/svg10.dtd">
<svg version="1.0" xmlns="http://www.w3.org/2000/svg"
 width="1024.000000pt" height="1024.000000pt" viewBox="0 0 1024.000000 1024.000000"
 preserveAspectRatio="xMidYMid meet">

<g transform="translate(0.000000,1024.000000) scale(0.100000,-0.100000)"
fill="#000000" stroke="none">
<path d="M2548 6910 c-99 -12 -267 -56 -361 -95 -182 -74 -318 -165 -462 -310
-157 -158 -260 -326 -329 -538 -34 -102 -66 -261 -66 -323 0 -29 -5 -35 -44
-52 -62 -28 -125 -89 -152 -147 -23 -49 -24 -57 -24 -335 0 -316 2 -326 70
-404 84 -95 281 -129 354 -61 l26 24 0 444 c0 374 -2 446 -15 463 -29 39 -9
206 44 358 30 86 101 215 166 301 175 232 462 400 768 450 120 19 328 19 442
-1 514 -89 926 -512 973 -999 7 -76 6 -86 -13 -112 -19 -27 -20 -40 -20 -459
1 -386 2 -434 17 -457 24 -36 77 -50 163 -45 115 8 192 56 243 153 l27 50 0
295 0 295 -27 50 c-33 63 -80 108 -139 134 l-46 21 -7 72 c-30 302 -167 594
-380 812 -151 153 -290 246 -484 324 -161 65 -307 93 -497 97 -88 2 -190 0
-227 -5z"/>
<path d="M2480 6306 c-25 -7 -60 -21 -79 -31 -48 -24 -136 -110 -151 -145 -13
-31 -20 -34 -85 -45 -124 -19 -231 -103 -291 -229 -27 -55 -34 -83 -34 -128 0
-54 -3 -61 -42 -100 -63 -65 -90 -134 -96 -242 -3 -74 -1 -100 15 -142 l20
-52 -25 -58 c-35 -80 -37 -211 -3 -296 27 -69 102 -172 146 -201 30 -19 33
-27 38 -84 12 -152 133 -287 295 -329 63 -16 71 -21 98 -63 97 -150 297 -180
434 -64 l29 24 28 -29 c59 -62 156 -90 245 -71 26 6 72 28 103 50 31 22 84 52
118 68 110 51 180 136 198 239 9 50 15 61 33 66 42 10 121 60 163 102 54 54
108 162 123 245 13 72 7 166 -15 230 -14 40 -14 45 9 103 58 148 37 288 -60
396 -20 22 -51 49 -70 61 -26 16 -34 28 -34 49 0 66 -32 188 -70 267 -75 153
-197 253 -425 348 -121 50 -178 57 -195 26 -6 -13 -10 -185 -10 -492 l0 -471
-32 8 c-18 5 -76 9 -128 9 -82 0 -103 -4 -153 -27 -113 -53 -179 -127 -211
-237 -23 -77 -20 -120 12 -182 44 -87 123 -129 244 -129 166 0 316 99 391 258
l32 67 2 415 c2 228 3 419 3 424 0 14 103 -2 165 -26 71 -27 152 -99 185 -164
22 -43 25 -62 25 -150 0 -100 -1 -102 -44 -186 -51 -99 -52 -138 -2 -138 24 0
37 11 79 68 27 37 60 87 73 112 13 25 25 47 26 49 2 3 19 -10 37 -29 102 -98
98 -260 -10 -364 -39 -38 -126 -76 -175 -76 -30 0 -79 -37 -79 -60 0 -20 20
-49 41 -61 27 -14 101 3 192 44 84 38 90 33 84 -73 -6 -119 -65 -222 -162
-282 -43 -26 -56 -23 -100 22 -56 57 -116 83 -195 83 -92 0 -130 -22 -130 -75
0 -44 35 -61 96 -47 68 15 122 -4 146 -52 26 -50 24 -137 -5 -180 -27 -40 -88
-83 -139 -98 -20 -6 -55 -27 -78 -46 -71 -59 -142 -63 -213 -13 -47 34 -57 66
-57 190 0 129 -11 158 -59 158 -51 0 -61 -24 -61 -152 0 -103 -2 -119 -23
-148 -46 -69 -142 -94 -215 -56 -109 57 -137 243 -47 312 44 33 48 75 10 100
-72 47 -185 -78 -185 -205 0 -35 -13 -39 -64 -17 -86 36 -156 134 -156 220 0
76 31 124 124 189 47 33 26 96 -32 97 -34 0 -61 -16 -122 -76 l-56 -54 -36 37
c-60 62 -83 123 -83 226 0 67 4 90 15 97 8 5 61 10 118 10 90 0 104 2 123 21
14 14 19 28 15 42 -3 12 -6 25 -6 29 0 13 -76 28 -136 26 -69 -2 -78 2 -100
44 -33 64 -10 244 35 272 6 4 32 -11 59 -33 69 -58 152 -92 242 -98 66 -5 78
-3 103 17 60 47 21 100 -74 100 -97 0 -191 47 -225 111 -36 71 -11 188 57 256
37 39 123 83 161 83 24 0 29 -5 38 -42 35 -135 199 -261 300 -232 71 20 64 84
-12 104 -68 18 -111 48 -146 98 -41 61 -45 140 -9 193 55 82 186 133 282 110
101 -25 121 -25 138 -1 23 34 10 57 -52 87 -65 33 -176 41 -251 19z"/>
<path d="M5042 5523 c-16 -49 -55 -160 -87 -248 -31 -88 -85 -241 -120 -340
-35 -99 -70 -199 -79 -223 l-15 -43 96 3 96 3 32 95 32 95 183 0 184 0 30 -95
31 -95 98 -3 c53 -1 97 -1 97 2 0 3 -11 35 -24 73 -14 37 -85 239 -160 448
-74 209 -138 388 -141 398 -6 15 -22 17 -115 17 l-108 0 -30 -87z m258 -490
c0 -10 -32 -13 -125 -13 -69 0 -125 1 -125 3 0 3 118 356 126 377 5 13 123
-337 124 -367z"/>
<path d="M5740 5140 l0 -470 90 0 90 0 0 470 0 470 -90 0 -90 0 0 -470z"/>
<path d="M6096 5593 c-4 -9 -6 -221 -6 -470 l2 -453 84 0 84 0 1 333 c0 331 0
332 19 292 10 -22 60 -130 112 -240 l94 -200 80 -3 81 -3 108 233 c60 128 112
237 117 243 4 5 8 -139 7 -320 l-1 -330 81 -3 81 -3 0 471 0 470 -108 0 -108
0 -46 -102 c-25 -57 -81 -181 -124 -275 -42 -95 -80 -173 -84 -173 -4 0 -28
48 -55 108 -26 59 -62 139 -80 177 -17 39 -51 114 -75 168 l-44 97 -107 0
c-91 0 -108 -2 -113 -17z"/>
<path d="M8086 5344 c-90 -33 -146 -108 -146 -197 0 -108 47 -149 230 -201 52
-15 105 -34 117 -42 35 -22 40 -60 13 -89 -49 -52 -147 -41 -199 22 l-30 37
-76 -18 c-41 -10 -75 -20 -75 -23 0 -3 12 -27 26 -54 48 -87 129 -124 269
-123 71 1 100 6 137 23 91 44 128 101 128 198 0 108 -51 152 -236 204 -116 32
-144 49 -144 84 0 40 35 60 105 60 56 0 67 -3 93 -28 30 -28 31 -29 85 -17 82
19 86 23 61 67 -26 46 -84 88 -141 102 -58 15 -170 12 -217 -5z"/>
<path d="M8782 5341 c-155 -53 -244 -223 -213 -404 20 -122 72 -194 174 -246
55 -28 75 -33 143 -33 95 -2 144 11 208 53 45 30 96 91 96 114 0 6 -27 24 -60
40 l-61 29 -31 -38 c-93 -113 -263 -71 -293 72 l-7 32 236 0 236 0 0 64 c0 36
-9 93 -21 131 -50 163 -233 246 -407 186z m177 -129 c35 -19 71 -72 71 -104 0
-16 -13 -18 -140 -18 -91 0 -140 4 -140 10 0 19 27 64 52 87 48 45 104 54 157
25z"/>
<path d="M7190 5093 c0 -148 5 -264 11 -288 27 -99 100 -146 227 -146 89 0
125 13 180 64 l32 31 0 -42 0 -42 85 0 85 0 0 335 0 335 -85 0 -85 0 0 -199
c0 -109 -3 -213 -6 -231 -4 -17 -21 -47 -39 -66 -31 -32 -36 -34 -99 -34 -58
0 -69 3 -98 29 l-33 29 -3 236 -3 236 -85 0 -84 0 0 -247z"/>
</g>
</svg>
